/* XPM */
static char *_84ac2c2f55d452fdbbed12bce2088baLDXbl6hxqAvlbbXc[] = {
/* columns rows colors chars-per-pixel */
"32 32 20 1 ",
"  c None",
". c black",
"X c gray4",
"o c #151515",
"O c #221416",
"+ c #2D181A",
"@ c #381B1F",
"# c #382D1B",
"$ c gray13",
"% c #2D2D2D",
"& c #393939",
"* c #4F252B",
"= c #682F37",
"- c #68522F",
"; c #7F6338",
": c gray27",
"> c #515151",
", c #5D5D5D",
"< c #686868",
"1 c #977541",
/* pixels */
"X.XoX..XX.XX.XooXXXX.XXooXX.X.XX",
"X>,><>:,<,>,>:,>,:,>:>:&::&&%%%.",
"X<><>::>,:><,::,,>,<,,::&&:&&%%.",
"o>,,:>,,:,&&oo$$$$oo%&>>:&::&&%X",
"X<,:><,&&%oo........oo%&>::&:&%.",
"o<>>,:&&%o..        ..o%&>::&:%o",
"X,<>:&%oo.            .oo&&&::%X",
".>,<&%o+O.            .O+o%&%&%o",
"X,<:%$++O.            .O++o%&%&X",
".>:&o@++O.            .O++@o&:%o",
".<>o@=++O.            .O++=@:&&o",
".>:o@=++O.            .O++=@,&:o",
"X,<X@*++O.            .O++*@<%%o",
"o,:X@*++O.            .O++*@<&%o",
"o,>oOO1+O.            .O+1OO<&%X",
"X>&$++1-O.            .O-1++,:&X",
"X&%o@@;-#.            .#-;@@,:%X",
".%&oOO;+#.            .#+;OO<&%o",
".&%X@=++O.            .O++=@>:&o",
"X:&X@=++O.            .O++=@<>:X",
".>:X@*++O.            .O++*@,>>X",
"X,:o@*++O.            .O++*@>&>.",
".,>oOO1+O.            .O+1OO,&>X",
"X><$++1-O.            .O-1++>&:o",
"X:>o@@;-#.            .#-;@@>%&o",
"o&<$OO-+#.            .#+-OO>%&X",
"X&>o@=++O.            .O++=@>%%.",
"o&:o@=++O.            .O++=@:%%X",
"X&&o@*+O.              .O+*@:$%o",
"X&&$@*O.                .O*@&$$X",
"o%$oOO.                  .OO&$$o",
"XoXX..                    ..oXoX"
};
