/* XPM */
static char *ab2f44ae01a14555ff5b786be78c327fjLprl6rvBERXMRN6[] = {
/* columns rows colors chars-per-pixel */
"32 32 6 1 ",
"  c #001000",
". c #002000",
"X c #003000",
"o c #004000",
"O c #006000",
"+ c #008000",
/* pixels */
"  . .. .  .  .   .. ..  ..  ..  ",
" oO+OO++X . O+OOX oO+Oo. oO+OO+X",
".OoO+ooO.o X+XXoX.O.o... XoooXX.",
" OXXooXOo. OXO+XX oo...   XXX..o",
".o+.oX... XXoXOXO ..   OX   ..oo",
".OoXXX  XXoOXooOX   .XOXoXo  ...",
".+..   XooO+XOXX  XoooOXooXX   .",
".Xoo. .XXOoXXXXX  oXOOoOoXoX X  ",
"  .o.    XXoXXX  XOoXoXOXXX  XXX",
" . .  ...  ..  . XXOXOooXo  XoXO",
".oX  ..+o. .oXX . XXXoXXO  OXOOo",
" O.X  o.. XXoXOXX .  XooX XXOoOo",
" o+.     XXOoOoOXX X  XX  XOOXXo",
" O.o..   XOXoooXoX  .  ... XoOoX",
" +XX.+..  oOOXOoXo oO..Oo. XooOo",
".OoX.Oo.. ooXXoXOX ...oO..  XXXX",
" o+X..O.. XXoOOoXX   ...     XXo",
".X+.o... XXoXoXXXXX    .       X",
". .o..  .o+OXXXoX X XX   Xo     ",
"...  .XX XoXoXXoX  XOO   XOoXOX ",
" o+o.  .. XXOXoX   X+oX  X+OoOXX",
" +o.o XX X      .O.XXOoX XXXXXOX",
".Oo. oo+XX  .o.oOoo oXOX  XOoXoX",
" o   XO+o.. .oOO..  XXXo    XXXX",
". Oo XXooXX oXo.   X       ..   ",
".+.X. XXX.  ... XoX OX  oO..o.. ",
".Oo.  .X. .    XooO+XX X +O...  ",
" +.... X.... XoXXOoOoXoX ....   ",
" o..o.   .X. oOOoOOX+OoX .o o+OX",
". .o.. XoXX  XXoXoXoOoXX    XOXX",
" ..+o oO+oXX   XoOXXXXX   OOoXXX",
"X  . XoXXXOX    XXXoXX   XoXXXXX"
};
