/* XPM */
static char *bdb0808c42c7496ff7ce29dfcf75fbbaJlipS9p9isYQv3fN[] = {
/* columns rows colors chars-per-pixel */
"32 32 18 1 ",
"  c None",
". c black",
"X c #600000",
"o c #200040",
"O c #300060",
"+ c #7F5A48",
"@ c #800000",
"# c #A00000",
"$ c #C00000",
"% c #A5765E",
"& c #CA8F72",
"* c #400080",
"= c #5000A0",
"- c #6000C0",
"; c #7000E0",
": c #E5A282",
"> c #C0C090",
", c #FFD3AF",
/* pixels */
"                                ",
"                                ",
"               =;-              ",
"             O=;-               ",
"             O;;=OO             ",
"          -;;;---;;;-=          ",
"            O=--=OOo            ",
"              +&,+:             ",
"               ,&:              ",
"               =+OO             ",
"              =---=OO           ",
"             =-;-;==-=          ",
"             -;;=;=O=-O         ",
"            -==-O-*OO;=O        ",
"          --=O=-O=*>>-=O        ",
"        :%==O O=oo>$$@=O        ",
"        :%OO  O=oo>$:%O         ",
"              OOOo>$:%O         ",
"              O*=*OO@@          ",
"              *=-=*OO           ",
"             *==;==*O.....      ",
"             *-O;==-==......    ",
"             =-o;-O-=-.......   ",
"             O-o-;O-O-=......   ",
"             O-o=-O-O=-.....    ",
"             O-OO-O=OO-....     ",
"            Oo-=o=O==o==..      ",
"            Oo=*oO*O*oOO.       ",
"             #XOoOOo##          ",
"            #XX     XX          ",
"                                ",
"                                "
};
